# xmcd
#
# Track frame offsets: 
#        150
#        4556
#        21810
#        35114
#        58485
#        81891
#        95370
#        128500
#        157050
#        196495
#        218337
#        255915
#        276836
#
# Disc length: 3987 seconds
#
# Revision: 0
# Processed by: cddbd v1.5.1PL0 Copyright (c) Steve Scherf et al.
# Submitted via: ExactAudioCopy v0.95a3
#
DISCID=a90f910d
DTITLE=Stevie Ray Vaughan - Mississippi Finale disc 1
DYEAR=2004
DGENRE=Blues
TTITLE0=Intro
TTITLE1=Scuttle Buttin'
TTITLE2=The House Is Rockin'
TTITLE3=Tightrope
TTITLE4=The Things That I Used To Do
TTITLE5=Let Me Love You Baby
TTITLE6=Leave My Little Girl Alone
TTITLE7=Wall Of Denial
TTITLE8=Riviera Paradise
TTITLE9=Superstition
TTITLE10=Cold Shot
TTITLE11=Couldn't Stand The Weather
TTITLE12=Goin' Down
EXTD=Live audience recording from the Harriet Island Riverfest, St. Pa
EXTD=ul, MN, USA, July 30, 1990\nInDeeD Music, IDDCD 026D
EXTT0=
EXTT1=
EXTT2=
EXTT3=
EXTT4=
EXTT5=
EXTT6=
EXTT7=
EXTT8=
EXTT9=
EXTT10=
EXTT11=
EXTT12=
PLAYORDER=
